# xmcd
#
# Track frame offsets: 
#        150
#        13673
#        32048
#        49560
#        67988
#        84113
#        98475
#        114218
#        134475
#        151628
#        168090
#        182738
#        198495
#        210555
#
# Disc length: 3004 seconds
#
# Revision: 0
# Processed by: cddbd v1.5.1PL2 Copyright (c) Steve Scherf et al.
# Submitted via: ExactAudioCopy v0.95b3
#
DISCID=a00bba0e
DTITLE=Michael Johnson - The Very Best Of Michael Johnson
DYEAR=1998
DGENRE=Ballad
TTITLE0=Bluer Than Blue
TTITLE1=This Night Won't Last Forever
TTITLE2=I'll Always Love You
TTITLE3=Rosalee
TTITLE4=The Love She Found In Me
TTITLE5=Doors
TTITLE6=Almost Like Being In Love
TTITLE7=Dialogue
TTITLE8=After You
TTITLE9=Blame It On The Rain
TTITLE10=The Very First Time
TTITLE11=Savin' It Up
TTITLE12=Stayin' With It
TTITLE13=When You Come Home
EXTD=
EXTT0=
EXTT1=
EXTT2=
EXTT3=
EXTT4=
EXTT5=
EXTT6=
EXTT7=
EXTT8=
EXTT9=
EXTT10=
EXTT11=
EXTT12=
EXTT13=
PLAYORDER=
